
<svg xmlns="http://www.w3.org/2000/svg" viewBox="0 0 1961.32 840.57" fill="white">
  <path d="m1826.22,118.91c-4.79-4.51-11.1-6.98-17.61-6.98-1,0-2,.06-3.01.18l-209.51,24.67c-.24.03-.46.11-.7.15-.99,0-1.99.06-2.99.18l-138.53,16.34c-9.46,1.12-17.35,7.33-20.81,15.87-1.26-1.75-2.74-3.34-4.42-4.74-4.64-3.86-10.47-5.95-16.45-5.95-1,0-2.01.06-3.01.18l-137.97,16.27c-.79.09-1.56.23-2.33.39-.68.03-1.36.04-2.04.12l-131.57,15.49c-12.4,1.46-21.95,11.62-22.65,24.08l-18.88,336.44-32.54,3.84,18.2-327.48c.42-7.58-2.53-14.95-8.06-20.15-4.79-4.5-11.1-6.97-17.6-6.97-1,0-2.01.06-3.01.18l-30.41,3.59,3.2-63.27c.44-8.64-2.95-17.03-9.27-22.93-5.47-5.12-12.65-7.92-20.06-7.92-1.15,0-2.29.07-3.45.2l-112.38,13.27c-11.6,1.37-21.02,9.4-24.49,20.08-5.27-8.63-14.73-14.07-25.05-14.07-1.14,0-2.3.07-3.45.2l-110.05,12.95c-5.56.65-10.61,2.86-14.76,6.14-3.84-1.77-8.02-2.73-12.29-2.73-1.14,0-2.29.07-3.44.2l-131.51,15.48c-3.28.39-6.38,1.3-9.22,2.66-2-.43-4.05-.64-6.11-.64-1.14,0-2.29.07-3.44.2l-131.51,15.49c-1.92.23-3.77.65-5.56,1.22-.88-.08-1.76-.13-2.65-.13-1.14,0-2.29.07-3.43.2l-212.6,25.03c-14.17,1.67-25.09,13.28-25.89,27.52l-25.92,462.45c-.48,8.66,2.88,17.09,9.2,23.04,5.48,5.15,12.69,7.97,20.12,7.97,1.14,0,2.29-.07,3.44-.2l131.44-15.5c14.17-1.67,25.08-13.28,25.88-27.52l9.16-163.33,33.86-3.99c-1.38,31.66-1.66,52.84-.87,65.38,1.37,22.4,9.16,43.91,22.54,62.16.19.26.38.51.58.77,15.76,20.07,37.92,34.85,62.44,41.65,17.3,5.29,35.28,7.96,53.44,7.96h1.35s.61-.02.61-.02c9.85-.04,19.61-.63,29.12-1.75,26.71-2.79,52.4-10.34,76.37-22.45.07-.04.15-.08.22-.11,22.41-11.56,42.22-28.24,57.3-48.27.33-.42.63-.86.95-1.28l-.69,12.29c-.49,8.66,2.88,17.1,9.2,23.04,5.48,5.15,12.69,7.97,20.12,7.97,1.14,0,2.29-.07,3.44-.2l112.4-13.27c9.88-1.17,18.18-7.17,22.57-15.53,5.48,6.28,13.5,10.08,22.12,10.08,1.24,0,2.49-.08,3.76-.24l16.96-2.17-3.38,60.28c-.42,7.58,2.52,14.96,8.05,20.16,4.79,4.51,11.1,6.98,17.61,6.98,1,0,2-.06,3.01-.18l202.64-23.86c2.27-.27,4.39-.91,6.43-1.72,1.28.2,2.58.32,3.89.32,1,0,2-.06,3.01-.18l131.57-15.5c12.4-1.46,21.95-11.62,22.65-24.08l8.67-154.61,13.46,139.72.65,7.06c.64,6.9,4.03,13.25,9.41,17.61,4.6,3.72,10.32,5.73,16.17,5.73,1,0,2-.06,3-.18l190.3-22.38c11.18-1.32,20.21-9.76,22.26-20.83l18.97-102.21-4.96,88.42c-.42,7.58,2.52,14.95,8.05,20.15,4.79,4.51,11.1,6.98,17.61,6.98,1,0,2-.06,3-.18l217.38-25.56c12.4-1.46,21.96-11.62,22.66-24.08l5.86-104.39c.43-7.58-2.52-14.96-8.05-20.16-4.79-4.51-11.1-6.98-17.6-6.98-1,0-2,.06-3.01.18l-55.36,6.52,1.73-31.57,51.45-6.06c12.4-1.46,21.95-11.62,22.65-24.08l5.61-99.97c.42-7.58-2.52-14.96-8.05-20.16-4.79-4.51-11.1-6.98-17.6-6.98-1,0-2.01.06-3.02.18l-42.54,5.02,1-17.95,56.47-6.64c12.4-1.46,21.96-11.62,22.66-24.08l5.86-104.38c.42-7.58-2.52-14.96-8.05-20.16M307.92,326.19l-3.82,68.35,72.16-8.34-5.72,101.39-72.17,8.51-10.55,187.97-131.45,15.5.1-1.72h-.1s25.92-462.44,25.92-462.44l212.6-24.92-6.02,106.17-80.95,9.55Zm61.51,20.61l-.59,10.53-33.57,3.96.59-10.53,33.57-3.96Zm318.89-169.2l-17.25,307.51c-.86,24.24-3.39,48.77-7.52,72.81-4.45,17.76-12.34,33.76-23.53,47.87-12.45,16.61-28.9,30.51-47.5,40.1-20.83,10.52-43.15,17.07-66.38,19.47-8.46,1.01-17.18,1.54-25.86,1.57-.65,0-1.31.02-1.96.02-15.39,0-30.59-2.28-45.24-6.8-18.63-5.08-35.56-16.31-47.55-31.58-10.07-13.73-15.89-29.83-16.92-46.64-.26-4.15-.38-9.53-.38-16.1-.04-13.61.54-32.8,1.74-57.95.03-.03.06-.06.09-.08.39-8.01.83-16.59,1.34-25.8l6.45-115.71s-.06-.07-.09-.11l1.32-23.75s.06-.03.1-.05l7.34-133.57,131.51-15.25-.1,1.72h.1s-19.29,343.99-19.29,343.99c-.68,5.44-.95,10.85-.88,16.21.16,5.73.73,11.41,1.74,17.05.18.41.61,1.44,3.25,1.44.45,0,.96-.03,1.54-.1,2.09-.07,3.81-.64,5.26-1.67,1.46-1.06,2.57-2.48,3.19-4.14,3.21-12.85,4.95-26.58,5.05-40.33l18.9-336.39,131.51-15.48-.1,1.72h.1Zm165.11,439.85l-1.56-5.94-37.55-149.53-9.04,161.13-112.4,13.27.1-1.72h-.1s25.93-462.37,25.93-462.37l110.05-12.95,43.83,156.91,9.17-163.13,112.38-13.27-.09,1.72h.09s-3.37,66.51-3.37,66.51l-71.54,8.44c-12.39,1.46-21.95,11.62-22.65,24.08l-20.98,374-22.27,2.85Zm245.47,63.48l-202.5,23.48.12-2.19h-.12s25.93-462.36,25.93-462.36l131.45-15.5-.12,2.19.12-.02-19.78,355.82,70.88-8.36-5.98,106.93Zm163.02-340.25l.08.8-18.06,322-131.72,15.97,26.09-465.03,131.57-15.49-7.95,141.75Zm302.06-10.77l-.17,3.11-55.55,299.33-190.3,22.38-.66-7.16-29.54-306.6.08-1.37-13.6-141.18,137.97-16.27.48,7.43c4.81,78.94,8.37,151.13,10.65,215.39,6.68-49.79,13.35-96.08,19.9-138.15l13.65-90.01,138.53-16.34-31.44,169.45Zm238.78-87.89l-77.92,9.16-3.8,67.87,72.8-8.6-.12,2.19h.12s-5.61,99.96-5.61,99.96l-72.92,8.59-4.46,81.47,85.57-10.09-.12,2.19.12-.02-5.86,104.39-217.38,25.56.12-2.18h-.12s25.92-462.36,25.92-462.36l209.5-24.68-.12,2.19h.12s-5.86,104.36-5.86,104.36Z"/>
</svg>